<svg version="1.0" xmlns="http://www.w3.org/2000/svg" viewBox="0 0 1024 1024" xml:space="preserve"><path fill="#2A2B26" d="M858 949.6H166c-64.4 0-117.2-52.7-117.2-117.2V191.6c0-64.4 52.7-117.2 117.2-117.2h692c64.4 0 117.2 52.7 117.2 117.2v640.8c0 64.4-52.7 117.2-117.2 117.2z"/><path fill="#F4C245" d="m277.7 524.9 3.3-62.4h-46l-3.3 62.4h-29.6l3.3-62.4h-42.7v-28.1H207l3.6-68.6h-47.9v-28.1H212l3.3-62.4h29.6l-3.3 62.4h46l3.3-62.4h29.6l-3.3 62.4h42.7v28.1h-44l-3.6 68.6h47.6v28.1h-49.3l-3.3 62.4h-29.6zm4.9-90.5 3.6-68.6h-46l-3.6 68.6h46zM525.6 524.9l3.3-62.4h-46l-3.3 62.4H450l3.3-62.4h-42.7v-28.1H455l3.6-68.6h-47.9v-28.1H460l3.3-62.4h29.6l-3.3 62.4h46l3.3-62.4h29.6l-3.3 62.4h42.7v28.1h-44l-3.6 68.6h47.6v28.1h-49.3l-3.3 62.4h-29.7zm4.9-90.5 3.6-68.6h-46l-3.6 68.6h46zM773.5 524.9l3.3-62.4h-46l-3.3 62.4h-29.6l3.3-62.4h-42.7v-28.1h44.3l3.6-68.6h-47.9v-28.1h49.3l3.3-62.4h29.6l-3.3 62.4h46l3.3-62.4h29.6l-3.3 62.4h42.7v28.1h-44l-3.6 68.6h47.6v28.1h-49.3l-3.3 62.4h-29.6zm4.9-90.5 3.6-68.6h-46l-3.6 68.6h46z"/><path fill="#4C4535" d="m336.4 769.4-65-51.2 9.2 75.8h-39.4l9.2-75.5-64.7 50.8L166 737l76.8-36.8-76.8-36.8 19.7-32.4 64.7 51.2-9.2-75.2h39.4l-9.2 75.5 65-51.5 19.7 32.4-76.8 36.8 76.8 36.8-19.7 32.4z"/><path fill="#F4C245" d="m525.6 856.5 3.3-62.4h-46l-3.3 62.4H450l3.3-62.4h-42.7V766H455l3.6-68.6h-47.9v-28.1H460l3.3-62.4h29.6l-3.3 62.4h46l3.3-62.4h29.6l-3.3 62.4h42.7v28.1h-44L560 766h47.6v28.1h-49.3l-3.3 62.4h-29.4zm4.9-90.5 3.6-68.6h-46l-3.6 68.6h46z"/><path fill="#4C4535" d="m832.2 769.4-65-51.2 9.2 75.8H737l9.2-75.5-64.7 50.8-19.7-32.3 76.8-36.8-76.8-36.8 19.7-32.4 64.7 51.2L737 607h39.4l-9.2 75.5 65-51.5 19.7 32.4-76.8 36.8 76.8 36.8-19.7 32.4z"/><radialGradient id="a" cx="158.923" cy="1774.392" r="429.752" gradientTransform="matrix(4.8538 0 0 -1.8326 -259.383 4135.596)" gradientUnits="userSpaceOnUse"><stop offset="0" style="stop-color:#fff"/><stop offset="1" style="stop-color:#fff;stop-opacity:9.411765e-02"/></radialGradient><path opacity=".05" fill="url(#a)" d="M850.1 927.6H173.9c-57 0-103.2-46.2-103.2-103.2v-750h882.5v750c.1 57-46.1 103.2-103.1 103.2z"/><path fill="#8E8E8E" d="M52.3 163.2h919.4c-12.8-50.9-59-88.8-113.7-88.8H166c-54.7 0-100.9 38-113.7 88.8z"/></svg>